<svg width="1840" height="1840" xmlns="http://www.w3.org/2000/svg" clip-rule="evenodd" version="1.1">

 <g>
  <title>Layer 1</title>
  <g id="svg_5">
   <path id="svg_6" d="m893.5,1328.5c5.333,0.67 10.667,1.33 16,2c-4.028,2.68 -8.361,4.85 -13,6.5c-11.833,3.33 -23.833,5.83 -36,7.5c0.493,3.98 1.493,7.81 3,11.5c69.67,6.01 132.003,-12.33 187,-55c10.85,-10.18 21.68,-20.35 32.5,-30.5c3.2,2.12 4.2,5.12 3,9c-11.87,23.7 -27.37,44.7 -46.5,63c3.38,11.37 11.05,16.2 23,14.5c9.37,-5.69 17.87,-12.53 25.5,-20.5c21.58,-26.5 36.25,-56.5 44,-90c6.88,-68.71 -16.28,-124.88 -69.5,-168.5c-9.72,-8.05 -19.72,-15.72 -30,-23c-29.33,-18 -58.667,-36 -88,-54c-14.944,-9.944 -29.61,-20.278 -44,-31c-54.413,-53.815 -70.58,-117.649 -48.5,-191.5c6.949,-20.231 16.282,-39.231 28,-57c12.154,-12.396 26.654,-20.896 43.5,-25.5c-3.366,-0.33 -6.699,0.003 -10,1c-9.941,2.819 -19.941,5.319 -30,7.5c-0.163,-2.357 0.003,-4.69 0.5,-7c37.5,-28.731 80,-44.898 127.5,-48.5c36.65,-4.897 71.31,1.103 104,18c7.89,4.56 15.23,9.893 22,16c9.73,10.4 20.06,20.067 31,29c14.3,9.736 29.8,16.902 46.5,21.5c-8.04,39.242 -30.87,65.742 -68.5,79.5c-2.33,0.667 -4.67,0.667 -7,0c-6.82,-9.076 -15.49,-15.743 -26,-20c-48.52,-8.054 -88.68,6.446 -120.5,43.5c-25.431,42.759 -23.264,83.926 6.5,123.5c-37.629,-9.741 -67.129,-30.907 -88.5,-63.5c-8.243,-16.731 -13.243,-34.398 -15,-53c-0.167,-14.678 -0.667,-29.345 -1.5,-44c-17.085,45.723 -9.918,87.056 21.5,124c20.822,21.837 45.322,38.337 73.5,49.5c35.79,12.929 71.79,25.262 108,37c33.44,12.38 64.11,29.38 92,51c56.66,48.62 79.83,110.12 69.5,184.5c-2.68,14.35 -7.34,28.02 -14,41c-0.67,1.33 -1.33,1.33 -2,0c-0.92,-2.6 -1.59,-5.27 -2,-8c-0.33,-17.33 -0.67,-34.67 -1,-52c-2.9,-71.09 -34.4,-124.93 -94.5,-161.5c-29.22,-18.18 -60.55,-30.84 -94,-38c37.3,16.97 71.96,37.97 104,63c25.86,22.19 46.03,48.69 60.5,79.5c21.56,75.2 7.89,143.2 -41,204c-35.9,37.05 -79.07,61.88 -129.5,74.5c-42.3,11.13 -85.298,15.46 -129,13c-31.224,-1.85 -62.224,-5.51 -93,-11c-96.449,-21.28 -174.283,-71.11 -233.5,-149.5c-69.536,-105.05 -88.203,-218.72 -56,-341c13.111,-45.662 31.111,-89.329 54,-131c30.986,-57.997 64.986,-113.997 102,-168c52.172,-74.506 105.505,-148.172 160,-221c17.728,-21.4 36.562,-41.9 56.5,-61.5c1.87,-1.366 3.87,-2.533 6,-3.5c6.319,5.818 12.486,11.818 18.5,18c22.814,31.489 47.148,61.822 73,91c14.62,20.283 29.62,40.283 45,60c17.7,25.53 35.2,51.196 52.5,77c-0.33,0.333 -0.67,0.667 -1,1c-19.9,-6.447 -39.9,-12.614 -60,-18.5c-7.02,-1.893 -13.69,-4.56 -20,-8c-36.333,-47.667 -72.667,-95.333 -109,-143c-6.614,5.602 -13.114,11.769 -19.5,18.5c-80.479,99.479 -155.145,203.146 -224,311c-29.406,46.144 -54.072,94.81 -74,146c-19.243,51.63 -28.243,104.96 -27,160c2.442,48.21 13.775,94.21 34,138c19.858,33.17 43.692,63.33 71.5,90.5c2.529,2.03 5.196,3.86 8,5.5c0.333,-0.5 0.667,-1 1,-1.5c-17.531,-37.32 -24.364,-76.49 -20.5,-117.5c4.036,-16.51 8.703,-32.85 14,-49c6.3,-15.93 14.634,-30.6 25,-44c10.98,-13.15 22.146,-26.15 33.5,-39c-10.416,5.13 -20.416,11.63 -30,19.5c-13.602,14.74 -26.602,29.91 -39,45.5c-3.504,-38.98 7.329,-73.31 32.5,-103c1.11,-1.54 2.61,-2.2 4.5,-2c0.87,5.68 1.87,11.35 3,17c11.465,-15.8 25.465,-28.8 42,-39c2.893,1.74 5.059,1.07 6.5,-2c13.026,-25.161 18.193,-51.827 15.5,-80c15.714,11.76 26.214,27.093 31.5,46c0.167,21.341 0.667,42.67 1.5,64c11.943,-6.15 24.61,-8.48 38,-7c0.163,2.36 -0.003,4.69 -0.5,7c-13.773,7.77 -24.106,18.77 -31,33c-6.94,17.73 -16.773,33.56 -29.5,47.5c-8.379,7.36 -18.045,12.36 -29,15c-16.852,4.04 -33.685,7.54 -50.5,10.5c-22.489,53.57 -12.322,99.74 30.5,138.5c25.35,20 54.016,33 86,39c25.746,5.14 51.746,7.97 78,8.5z" fill="#fdfdfd"/>
  </g>
  <g id="svg_7">
   <path id="svg_8" d="m1061.5,696.5c16.36,-0.91 31.69,2.59 46,10.5c6.6,4.594 11.76,10.427 15.5,17.5c0.5,2.646 0.66,5.313 0.5,8c-10.97,1.099 -21.97,1.265 -33,0.5c-8.85,-2.18 -15.35,-7.347 -19.5,-15.5c-3.5,-6.333 -7,-12.667 -10.5,-19c0.36,-0.683 0.7,-1.35 1,-2z" fill="#cf0603"/>
  </g>
  <g id="svg_9">
   <path id="svg_10" d="m1219.5,813.5c8.44,2.471 14.94,7.471 19.5,15c26.92,47.762 48.58,97.762 65,150c18.66,72.43 15.99,144.09 -8,215c-1.43,4.62 -3.43,8.96 -6,13c-1.87,-2.31 -2.87,-4.97 -3,-8c-1.64,-13.72 -3.64,-27.39 -6,-41c-2.89,-7.22 -6.23,-14.22 -10,-21c-1.13,-4.64 -2.13,-9.31 -3,-14c5.07,-67.6 -6.27,-132.265 -34,-194c-13.17,-29.181 -27.01,-58.014 -41.5,-86.5c0.17,-0.833 0.33,-1.667 0.5,-2.5c9.05,-8.576 17.88,-17.243 26.5,-26z" fill="#fcfcfc"/>
  </g>
  <g id="svg_11">
   <path id="svg_12" d="m893.5,1328.5c5.706,-0.33 11.372,0 17,1c-0.124,0.61 -0.457,0.94 -1,1c-5.333,-0.67 -10.667,-1.33 -16,-2z" fill="#b3b2b2"/>
  </g>
  <g id="svg_13">
   <path id="svg_14" d="m0.5,1731.5c1.49433,25.16 1.99433,50.49 1.5,76c-1.26162,-25.32 -1.76162,-50.65 -1.5,-76z" fill="#423e41"/>
  </g>
 </g>
</svg>